<?xml version="1.0" encoding="UTF-8" standalone="no"?>
<!-- Created with Inkscape (http://www.inkscape.org/) -->

<svg
   xmlns:dc="http://purl.org/dc/elements/1.1/"
   xmlns:cc="http://creativecommons.org/ns#"
   xmlns:rdf="http://www.w3.org/1999/02/22-rdf-syntax-ns#"
   xmlns:svg="http://www.w3.org/2000/svg"
   xmlns="http://www.w3.org/2000/svg"
   xmlns:sodipodi="http://sodipodi.sourceforge.net/DTD/sodipodi-0.dtd"
   xmlns:inkscape="http://www.inkscape.org/namespaces/inkscape"
   width="744.09448819"
   height="1052.3622047"
   id="svg2993"
   version="1.1"
   inkscape:version="0.48.4 r9939"
   sodipodi:docname="Nouveau document 3">
  <defs
     id="defs2995" />
  <sodipodi:namedview
     id="base"
     pagecolor="#ffffff"
     bordercolor="#ffffff"
     borderopacity="0.0"
     inkscape:pageopacity="0.0"
     inkscape:pageshadow="0"
     inkscape:zoom="0.35"
     inkscape:cx="-141.42857"
     inkscape:cy="520"
     inkscape:document-units="px"
     inkscape:current-layer="layer1"
     showgrid="false"
     inkscape:window-width="1680"
     inkscape:window-height="998"
     inkscape:window-x="-8"
     inkscape:window-y="-8"
     inkscape:window-maximized="1" />
  <metadata
     id="metadata2998">
    <rdf:RDF>
      <cc:Work
         rdf:about="">
        <dc:format>image/svg+xml</dc:format>
        <dc:type
           rdf:resource="http://purl.org/dc/dcmitype/StillImage" />
        <dc:title></dc:title>
      </cc:Work>
    </rdf:RDF>
  </metadata>
  <g
     inkscape:label="Layer 1"
     inkscape:groupmode="layer"
     id="layer1">
    <rect
       style="fill:none;fill-opacity:1;stroke:#000000;stroke-width:10;stroke-linecap:butt;stroke-linejoin:round;stroke-miterlimit:4;stroke-opacity:1;stroke-dasharray:none"
       id="rect3001"
       width="2000"
       height="1888.5714"
       x="-777.14288"
       y="-490.49496" />
    <path
       style="fill:none;stroke:#000000;stroke-width:10;stroke-linecap:butt;stroke-linejoin:miter;stroke-opacity:1;stroke-miterlimit:4;stroke-dasharray:none"
       d="m -774.28571,-410.49496 1994.28571,0"
       id="path3773"
       inkscape:connector-curvature="0" />
    <path
       style="fill:none;stroke:#000000;stroke-width:10;stroke-linecap:butt;stroke-linejoin:miter;stroke-opacity:1;stroke-miterlimit:4;stroke-dasharray:none"
       d="m 1140,-416.20925 0,-77.14285"
       id="path3779"
       inkscape:connector-curvature="0" />
    <path
       style="fill:none;stroke:#000000;stroke-width:10;stroke-linecap:butt;stroke-linejoin:miter;stroke-opacity:1;stroke-miterlimit:4;stroke-dasharray:none"
       d="m 1054.2857,-413.3521 0,-80"
       id="path3781"
       inkscape:connector-curvature="0" />
    <path
       style="fill:none;stroke:#ff0000;stroke-width:10;stroke-linecap:butt;stroke-linejoin:miter;stroke-opacity:1;stroke-miterlimit:4;stroke-dasharray:none"
       d="m 1162.8571,-433.3521 34.2858,-34.28572"
       id="path3783"
       inkscape:connector-curvature="0" />
    <path
       style="fill:none;stroke:#000000;stroke-width:10;stroke-linecap:butt;stroke-linejoin:miter;stroke-opacity:1;stroke-miterlimit:4;stroke-dasharray:none"
       d="m 1080,-433.3521 34.2857,0"
       id="path3787"
       inkscape:connector-curvature="0" />
    <flowRoot
       xml:space="preserve"
       id="flowRoot3789"
       style="font-size:40px;font-style:normal;font-weight:normal;line-height:125%;letter-spacing:0px;word-spacing:0px;fill:#000000;fill-opacity:1;stroke:none;font-family:Sans"><flowRegion
         id="flowRegion3791"><rect
           id="rect3793"
           width="1800"
           height="54.285713"
           x="-765.71429"
           y="-479.06638" /></flowRegion><flowPara
         id="flowPara3795"
         style="font-size:48px">Galadard - Game powered by Unreal Engine 4</flowPara></flowRoot>    <path
       style="fill:none;stroke:#ff0000;stroke-width:10;stroke-linecap:butt;stroke-linejoin:miter;stroke-miterlimit:4;stroke-opacity:1;stroke-dasharray:none"
       d="m 1197.1429,-433.3521 -34.2858,-34.28572"
       id="path3783-1"
       inkscape:connector-curvature="0" />
    <path
       style="fill:#006000;fill-opacity:1;stroke:#000000;stroke-width:10;stroke-linecap:butt;stroke-linejoin:round;stroke-miterlimit:4;stroke-opacity:1;stroke-dasharray:none"
       d="M 206.34149,1115.2188 138.56024,1183 l 0,95.0625 168.59375,0 0,-93.4063 -69.46875,-69.4374 -31.34375,0 z"
       id="rect3815"
       inkscape:connector-curvature="0" />
    <path
       sodipodi:type="arc"
       style="fill:#ff0c00;fill-opacity:1;stroke:#000000;stroke-width:10;stroke-linecap:butt;stroke-linejoin:round;stroke-miterlimit:4;stroke-opacity:1;stroke-dasharray:none"
       id="path3856"
       sodipodi:cx="-710"
       sodipodi:cy="1336.6479"
       sodipodi:rx="32.857143"
       sodipodi:ry="32.857143"
       d="m -677.14286,1336.6479 a 32.857143,32.857143 0 1 1 -65.71428,0 32.857143,32.857143 0 1 1 65.71428,0 z"
       transform="translate(0,-2.1428832)" />
    <path
       transform="translate(92.500007,-2.1428832)"
       sodipodi:type="arc"
       style="fill:#ff0c00;fill-opacity:1;stroke:#000000;stroke-width:10;stroke-linecap:butt;stroke-linejoin:round;stroke-miterlimit:4;stroke-opacity:1;stroke-dasharray:none"
       id="path3856-0"
       sodipodi:cx="-710"
       sodipodi:cy="1336.6479"
       sodipodi:rx="32.857143"
       sodipodi:ry="32.857143"
       d="m -677.14286,1336.6479 a 32.857143,32.857143 0 1 1 -65.71428,0 32.857143,32.857143 0 1 1 65.71428,0 z" />
    <path
       transform="translate(184.99999,-2.1428832)"
       sodipodi:type="arc"
       style="fill:#ff0c00;fill-opacity:1;stroke:#000000;stroke-width:10;stroke-linecap:butt;stroke-linejoin:round;stroke-miterlimit:4;stroke-opacity:1;stroke-dasharray:none"
       id="path3856-9"
       sodipodi:cx="-710"
       sodipodi:cy="1336.6479"
       sodipodi:rx="32.857143"
       sodipodi:ry="32.857143"
       d="m -677.14286,1336.6479 a 32.857143,32.857143 0 1 1 -65.71428,0 32.857143,32.857143 0 1 1 65.71428,0 z" />
    <path
       transform="translate(277.49999,-2.1428832)"
       sodipodi:type="arc"
       style="fill:#ff0c00;fill-opacity:1;stroke:#000000;stroke-width:10;stroke-linecap:butt;stroke-linejoin:round;stroke-miterlimit:4;stroke-opacity:1;stroke-dasharray:none"
       id="path3856-4"
       sodipodi:cx="-710"
       sodipodi:cy="1336.6479"
       sodipodi:rx="32.857143"
       sodipodi:ry="32.857143"
       d="m -677.14286,1336.6479 a 32.857143,32.857143 0 1 1 -65.71428,0 32.857143,32.857143 0 1 1 65.71428,0 z" />
    <path
       transform="translate(370,-2.1428832)"
       sodipodi:type="arc"
       style="fill:#ff0c00;fill-opacity:1;stroke:#000000;stroke-width:10;stroke-linecap:butt;stroke-linejoin:round;stroke-miterlimit:4;stroke-opacity:1;stroke-dasharray:none"
       id="path3856-8"
       sodipodi:cx="-710"
       sodipodi:cy="1336.6479"
       sodipodi:rx="32.857143"
       sodipodi:ry="32.857143"
       d="m -677.14286,1336.6479 a 32.857143,32.857143 0 1 1 -65.71428,0 32.857143,32.857143 0 1 1 65.71428,0 z" />
    <rect
       style="fill:#a2a2a2;fill-opacity:1;stroke:#000000;stroke-width:10;stroke-linecap:butt;stroke-linejoin:round;stroke-miterlimit:4;stroke-opacity:1;stroke-dasharray:none"
       id="rect3897"
       width="162.85715"
       height="160"
       x="1032.1428"
       y="1206.6479"
       ry="42.857143" />
    <rect
       style="fill:#a2a2a2;fill-opacity:1;stroke:#000000;stroke-width:10;stroke-linecap:butt;stroke-linejoin:round;stroke-miterlimit:4;stroke-opacity:1;stroke-dasharray:none"
       id="rect3897-8"
       width="162.85715"
       height="160"
       x="1032.1428"
       y="1023.7908"
       ry="42.857143" />
    <rect
       style="fill:#a2a2a2;fill-opacity:1;stroke:#000000;stroke-width:10;stroke-linecap:butt;stroke-linejoin:round;stroke-miterlimit:4;stroke-opacity:1;stroke-dasharray:none"
       id="rect3897-2"
       width="162.85715"
       height="160"
       x="1032.1428"
       y="840.93359"
       ry="42.857143" />
    <g
       id="g4170"
       transform="translate(-3.0078121e-7,72.857131)">
      <g
         transform="translate(59.285757,0)"
         id="g4135">
        <path
           inkscape:connector-curvature="0"
           style="fill:#c71828;fill-opacity:1;stroke:#000000;stroke-width:4.72065973;stroke-linecap:butt;stroke-linejoin:round;stroke-miterlimit:4;stroke-opacity:1;stroke-dasharray:none"
           d="m -610.77497,107.94152 31.99723,-31.997197 0,-44.87577 -79.58738,0 0,44.09394 32.79383,32.779027 14.79632,0 z"
           id="rect3815-4" />
        <path
           inkscape:connector-curvature="0"
           style="fill:#c71828;fill-opacity:1;stroke:#000000;stroke-width:4.72065973;stroke-linecap:butt;stroke-linejoin:round;stroke-miterlimit:4;stroke-opacity:1;stroke-dasharray:none"
           d="m -468.56718,107.94152 31.99723,-31.997195 0,-44.875769 -79.58738,0 0,44.093939 32.79383,32.779025 14.79632,0 z"
           id="rect3815-4-5" />
        <path
           inkscape:connector-curvature="0"
           style="fill:#c71828;fill-opacity:1;stroke:#000000;stroke-width:4.72065973;stroke-linecap:butt;stroke-linejoin:round;stroke-miterlimit:4;stroke-opacity:1;stroke-dasharray:none"
           d="m -326.35938,107.94152 31.99723,-31.997199 0,-44.875767 -79.58738,0 0,44.093937 32.79383,32.779029 14.79632,0 z"
           id="rect3815-4-51" />
        <path
           inkscape:connector-curvature="0"
           style="fill:#c71828;fill-opacity:1;stroke:#000000;stroke-width:4.72065973;stroke-linecap:butt;stroke-linejoin:round;stroke-miterlimit:4;stroke-opacity:1;stroke-dasharray:none"
           d="m -184.15161,107.94153 31.99723,-31.997206 0,-44.875771 -79.58738,0 0,44.093941 32.79383,32.779036 14.79632,0 z"
           id="rect3815-4-7" />
        <path
           inkscape:connector-curvature="0"
           style="fill:#c71828;fill-opacity:1;stroke:#000000;stroke-width:4.72065973;stroke-linecap:butt;stroke-linejoin:round;stroke-miterlimit:4;stroke-opacity:1;stroke-dasharray:none"
           d="m -41.943835,107.94153 31.9972296,-31.997206 0,-44.875771 -79.5873796,0 0,44.093941 32.79383,32.779036 14.79632,0 z"
           id="rect3815-4-1" />
        <path
           inkscape:connector-curvature="0"
           style="fill:#c71828;fill-opacity:1;stroke:#000000;stroke-width:4.72065973;stroke-linecap:butt;stroke-linejoin:round;stroke-miterlimit:4;stroke-opacity:1;stroke-dasharray:none"
           d="m 100.26394,107.94153 31.99723,-31.997206 0,-44.875771 -79.587373,0 0,44.093941 32.793827,32.779036 14.796316,0 z"
           id="rect3815-4-15" />
        <path
           inkscape:connector-curvature="0"
           style="fill:#c71828;fill-opacity:1;stroke:#000000;stroke-width:4.72065973;stroke-linecap:butt;stroke-linejoin:round;stroke-miterlimit:4;stroke-opacity:1;stroke-dasharray:none"
           d="m 242.47172,107.94153 31.99723,-31.997209 0,-44.87577 -79.58738,0 0,44.09394 32.79383,32.779039 14.79632,0 z"
           id="rect3815-4-2" />
        <path
           inkscape:connector-curvature="0"
           style="fill:#c71828;fill-opacity:1;stroke:#000000;stroke-width:4.72065973;stroke-linecap:butt;stroke-linejoin:round;stroke-miterlimit:4;stroke-opacity:1;stroke-dasharray:none"
           d="m 384.67951,107.94153 31.99723,-31.997209 0,-44.87577 -79.58738,0 0,44.09394 32.79383,32.779039 14.79632,0 z"
           id="rect3815-4-76" />
        <path
           inkscape:connector-curvature="0"
           style="fill:#c71828;fill-opacity:1;stroke:#000000;stroke-width:4.72065973;stroke-linecap:butt;stroke-linejoin:round;stroke-miterlimit:4;stroke-opacity:1;stroke-dasharray:none"
           d="m 526.88726,107.94153 31.99723,-31.997209 0,-44.87577 -79.58738,0 0,44.09394 32.79383,32.779039 14.79632,0 z"
           id="rect3815-4-14" />
        <path
           inkscape:connector-curvature="0"
           style="fill:#c71828;fill-opacity:1;stroke:#000000;stroke-width:4.72065973;stroke-linecap:butt;stroke-linejoin:round;stroke-miterlimit:4;stroke-opacity:1;stroke-dasharray:none"
           d="m 669.09505,107.94153 31.99723,-31.997209 0,-44.87577 -79.58738,0 0,44.09394 32.79383,32.779039 14.79632,0 z"
           id="rect3815-4-23" />
        <path
           inkscape:connector-curvature="0"
           style="fill:#c71828;fill-opacity:1;stroke:#000000;stroke-width:4.72065973;stroke-linecap:butt;stroke-linejoin:round;stroke-miterlimit:4;stroke-opacity:1;stroke-dasharray:none"
           d="m 811.30282,107.94153 31.99723,-31.997208 0,-44.87577 -79.58738,0 0,44.09394 32.79383,32.779038 14.79632,0 z"
           id="rect3815-4-22" />
        <path
           inkscape:connector-curvature="0"
           style="fill:#c71828;fill-opacity:1;stroke:#000000;stroke-width:4.72065973;stroke-linecap:butt;stroke-linejoin:round;stroke-miterlimit:4;stroke-opacity:1;stroke-dasharray:none"
           d="m 953.51061,107.94153 31.99723,-31.997208 0,-44.87577 -79.58738,0 0,44.09394 32.79383,32.779038 14.79632,0 z"
           id="rect3815-4-16" />
      </g>
      <g
         transform="translate(-15.714313,-14.285706)"
         id="g4149">
        <path
           inkscape:connector-curvature="0"
           style="fill:#c71828;fill-opacity:1;stroke:#000000;stroke-width:4.72065973;stroke-linecap:butt;stroke-linejoin:round;stroke-miterlimit:4;stroke-opacity:1;stroke-dasharray:none"
           d="m -295.06068,230.79866 31.99723,-31.9972 0,-44.87577 -79.58738,0 0,44.09394 32.79383,32.77903 14.79632,0 z"
           id="rect3815-4-8" />
        <path
           inkscape:connector-curvature="0"
           style="fill:#c71828;fill-opacity:1;stroke:#000000;stroke-width:4.72065973;stroke-linecap:butt;stroke-linejoin:round;stroke-miterlimit:4;stroke-opacity:1;stroke-dasharray:none"
           d="m -140.3668,230.79867 31.99723,-31.9972 0,-44.87577 -79.58738,0 0,44.09394 32.79383,32.77903 14.79632,0 z"
           id="rect3815-4-57" />
        <path
           inkscape:connector-curvature="0"
           style="fill:#c71828;fill-opacity:1;stroke:#000000;stroke-width:4.72065973;stroke-linecap:butt;stroke-linejoin:round;stroke-miterlimit:4;stroke-opacity:1;stroke-dasharray:none"
           d="m 14.32707,230.79867 31.997229,-31.9972 0,-44.87577 -79.58738,0 0,44.09394 32.79383038,32.77903 14.79632062,0 z"
           id="rect3815-4-6" />
        <path
           inkscape:connector-curvature="0"
           style="fill:#c71828;fill-opacity:1;stroke:#000000;stroke-width:4.72065973;stroke-linecap:butt;stroke-linejoin:round;stroke-miterlimit:4;stroke-opacity:1;stroke-dasharray:none"
           d="m 169.02095,230.79867 31.99723,-31.9972 0,-44.87577 -79.58738,0 0,44.09394 32.79383,32.77903 14.79632,0 z"
           id="rect3815-4-18" />
        <path
           inkscape:connector-curvature="0"
           style="fill:#c71828;fill-opacity:1;stroke:#000000;stroke-width:4.72065973;stroke-linecap:butt;stroke-linejoin:round;stroke-miterlimit:4;stroke-opacity:1;stroke-dasharray:none"
           d="m 323.71484,230.79867 31.99723,-31.9972 0,-44.87577 -79.58738,0 0,44.09394 32.79383,32.77903 14.79632,0 z"
           id="rect3815-4-9" />
        <path
           inkscape:connector-curvature="0"
           style="fill:#c71828;fill-opacity:1;stroke:#000000;stroke-width:4.72065973;stroke-linecap:butt;stroke-linejoin:round;stroke-miterlimit:4;stroke-opacity:1;stroke-dasharray:none"
           d="m 478.40871,230.79867 31.99723,-31.9972 0,-44.87577 -79.58738,0 0,44.09394 32.79383,32.77903 14.79632,0 z"
           id="rect3815-4-27" />
        <path
           inkscape:connector-curvature="0"
           style="fill:#c71828;fill-opacity:1;stroke:#000000;stroke-width:4.72065973;stroke-linecap:butt;stroke-linejoin:round;stroke-miterlimit:4;stroke-opacity:1;stroke-dasharray:none"
           d="m 633.1026,230.79867 31.99723,-31.9972 0,-44.87577 -79.58738,0 0,44.09394 32.79383,32.77903 14.79632,0 z"
           id="rect3815-4-95" />
        <path
           inkscape:connector-curvature="0"
           style="fill:#c71828;fill-opacity:1;stroke:#000000;stroke-width:4.72065973;stroke-linecap:butt;stroke-linejoin:round;stroke-miterlimit:4;stroke-opacity:1;stroke-dasharray:none"
           d="m 787.79646,230.79867 31.99723,-31.9972 0,-44.87577 -79.58738,0 0,44.09394 32.79383,32.77903 14.79632,0 z"
           id="rect3815-4-4" />
      </g>
      <g
         transform="translate(-48.571444,-25.714294)"
         id="g4159">
        <path
           inkscape:connector-curvature="0"
           style="fill:#c71828;fill-opacity:1;stroke:#000000;stroke-width:4.72065973;stroke-linecap:butt;stroke-linejoin:round;stroke-miterlimit:4;stroke-opacity:1;stroke-dasharray:none"
           d="m -40.774969,350.79867 31.9972305,-31.99721 0,-44.87576 -79.5873805,0 0,44.09393 32.79383,32.77903 14.79632,0 z"
           id="rect3815-4-3" />
        <path
           inkscape:connector-curvature="0"
           style="fill:#c71828;fill-opacity:1;stroke:#000000;stroke-width:4.72065973;stroke-linecap:butt;stroke-linejoin:round;stroke-miterlimit:4;stroke-opacity:1;stroke-dasharray:none"
           d="m 119.22503,350.79866 31.99723,-31.9972 0,-44.87577 -79.587378,0 0,44.09394 32.793828,32.77903 14.79632,0 z"
           id="rect3815-4-12" />
        <path
           inkscape:connector-curvature="0"
           style="fill:#c71828;fill-opacity:1;stroke:#000000;stroke-width:4.72065973;stroke-linecap:butt;stroke-linejoin:round;stroke-miterlimit:4;stroke-opacity:1;stroke-dasharray:none"
           d="m 279.22503,350.79866 31.99723,-31.9972 0,-44.87577 -79.58738,0 0,44.09394 32.79383,32.77903 14.79632,0 z"
           id="rect3815-4-33" />
        <path
           inkscape:connector-curvature="0"
           style="fill:#c71828;fill-opacity:1;stroke:#000000;stroke-width:4.72065973;stroke-linecap:butt;stroke-linejoin:round;stroke-miterlimit:4;stroke-opacity:1;stroke-dasharray:none"
           d="m 439.22504,350.79867 31.99723,-31.99721 0,-44.87577 -79.58738,0 0,44.09394 32.79383,32.77904 14.79632,0 z"
           id="rect3815-4-41" />
        <path
           inkscape:connector-curvature="0"
           style="fill:#c71828;fill-opacity:1;stroke:#000000;stroke-width:4.72065973;stroke-linecap:butt;stroke-linejoin:round;stroke-miterlimit:4;stroke-opacity:1;stroke-dasharray:none"
           d="m 599.22501,350.79867 31.99723,-31.99721 0,-44.87577 -79.58738,0 0,44.09394 32.79383,32.77904 14.79632,0 z"
           id="rect3815-4-13" />
      </g>
      <g
         transform="translate(-72.857173,0)"
         id="g4166">
        <path
           inkscape:connector-curvature="0"
           style="fill:#c71828;fill-opacity:1;stroke:#000000;stroke-width:4.72065973;stroke-linecap:butt;stroke-linejoin:round;stroke-miterlimit:4;stroke-opacity:1;stroke-dasharray:none"
           d="m 213.51075,433.65581 31.99723,-31.9972 0,-44.87577 -79.58738,0 0,44.09394 32.79383,32.77903 14.79632,0 z"
           id="rect3815-4-87" />
        <path
           inkscape:connector-curvature="0"
           style="fill:#c71828;fill-opacity:1;stroke:#000000;stroke-width:4.72065973;stroke-linecap:butt;stroke-linejoin:round;stroke-miterlimit:4;stroke-opacity:1;stroke-dasharray:none"
           d="m 393.51075,433.65581 31.99723,-31.9972 0,-44.87577 -79.58738,0 0,44.09394 32.79383,32.77903 14.79632,0 z"
           id="rect3815-4-42" />
      </g>
    </g>
    <path
       style="fill:#60000d;fill-opacity:1;stroke:#000000;stroke-width:20.23871994;stroke-linecap:butt;stroke-linejoin:round;stroke-miterlimit:4;stroke-opacity:1;stroke-dasharray:none"
       d="m 256.28263,17.149584 137.18057,-137.180474 0,-192.39433 -341.212169,0 0,189.04239 140.595859,140.532414 63.43574,0 z"
       id="rect3815-7"
       inkscape:connector-curvature="0" />
  </g>
</svg>
